<svg width="18" height="18" viewBox="0 0 18 18" fill="none" xmlns="http://www.w3.org/2000/svg">
<path d="M15.1875 5.535C14.9625 2.8125 13.3369 1.20938 10.6875 1.125H6.1875C5.88913 1.125 5.60298 1.24353 5.392 1.4545C5.18102 1.66548 5.0625 1.95163 5.0625 2.25V8.4375H3.9375C3.63913 8.4375 3.35298 8.55603 3.142 8.767C2.93103 8.97798 2.8125 9.26413 2.8125 9.5625C2.8125 9.86087 2.93103 10.147 3.142 10.358C3.35298 10.569 3.63913 10.6875 3.9375 10.6875H5.0625V11.8125H3.9375C3.63913 11.8125 3.35298 11.931 3.142 12.142C2.93103 12.353 2.8125 12.6391 2.8125 12.9375C2.8125 13.2359 2.93103 13.522 3.142 13.733C3.35298 13.944 3.63913 14.0625 3.9375 14.0625H5.0625V15.75C5.0625 16.0484 5.18102 16.3345 5.392 16.5455C5.60298 16.7565 5.88913 16.875 6.1875 16.875C6.48587 16.875 6.77201 16.7565 6.98299 16.5455C7.19397 16.3345 7.3125 16.0484 7.3125 15.75V10.6875H10.7269C13.3537 10.6031 15.0637 8.89875 15.1875 6.1875V5.625C15.1875 5.59688 15.1875 5.56313 15.1875 5.535ZM10.6875 8.4375H7.3125V3.375H10.6481C12.0937 3.42 12.7969 4.13438 12.9375 5.67562V6.13688C12.87 7.63875 12.1219 8.3925 10.6875 8.4375Z" fill="#EDB021"/>
<path d="M11.8125 11.8125H9C8.70163 11.8125 8.41548 11.931 8.2045 12.142C7.99353 12.353 7.875 12.6391 7.875 12.9375C7.875 13.2359 7.99353 13.522 8.2045 13.733C8.41548 13.944 8.70163 14.0625 9 14.0625H11.8125C12.1109 14.0625 12.397 13.944 12.608 13.733C12.819 13.522 12.9375 13.2359 12.9375 12.9375C12.9375 12.6391 12.819 12.353 12.608 12.142C12.397 11.931 12.1109 11.8125 11.8125 11.8125Z" fill="#EDB021"/>
</svg>
